<svg xmlns="http://www.w3.org/2000/svg" width="232.166" height="48" viewBox="0 0 232.166 48"><path d="M169.567 27.851zM19.833 5.167C9.431 5.167 1 13.599 1 24c0 10.399 8.431 18.834 18.833 18.834 10.401 0 18.831-8.435 18.831-18.834 0-10.401-8.43-18.833-18.831-18.833zm204.028 10.171c-2.024 0-3.838.832-5.107 2.343l-.146.175-.144-.178c-1.202-1.508-3.075-2.339-5.163-2.339-4.262 0-7.301 3.043-7.301 7.402V32h4v-9.359c0-2.012 1.566-3.419 3.562-3.419 2.941 0 3.438 2.391 3.438 3.419V32h3v-9.359c0-2.012 1.555-3.419 3.551-3.419 3.052 0 3.449 2.615 3.449 3.419V32h4v-9.26c0-4.495-2.804-7.402-7.139-7.402zm-27.433.034c-4.642 0-8.421 3.898-8.421 8.69 0 4.79 3.779 8.69 8.421 8.69 4.646 0 8.426-3.9 8.426-8.69 0-4.792-3.78-8.69-8.426-8.69zm0 13.444c-2.546 0-4.615-2.133-4.615-4.754 0-2.623 2.069-4.754 4.615-4.754 2.548 0 4.619 2.131 4.619 4.754 0 2.622-2.071 4.754-4.619 4.754zm-16.457.369c-2.434 0-4.413-2.269-4.413-5.063 0-2.851 1.979-5.219 4.413-5.219 1.653 0 2.951 1.098 3.538 2.098h4.155c-1.001-4-3.86-5.713-7.693-5.713-4.747 0-8.324 3.791-8.324 8.779 0 4.955 3.577 8.691 8.324 8.691 3.861 0 6.731-1.758 7.727-5.758h-4.152c-.647 1-2.097 2.185-3.575 2.185z" fill="#ff8300"/><path d="M90.69 15.338c-2.022 0-3.921.832-5.19 2.343l-.191.175-.161-.178c-1.204-1.508-2.919-2.339-5.007-2.339-4.261 0-7.142 3.043-7.142 7.402V32h4v-9.359c0-2.012 1.07-3.419 3.064-3.419 2.941 0 2.936 2.391 2.936 3.419V32h4v-9.359c0-2.012 1.553-3.419 3.548-3.419 3.055 0 3.452 2.615 3.452 3.419V32h4v-9.26c.001-4.495-2.972-7.402-7.309-7.402zM55.757 15h-.114c-4.859 0-8.602 3.883-8.654 8.839-.054 4.793 3.549 8.811 7.987 8.864l.173.039c1.42 0 2.747-.178 3.645-.523l.104-.035-.007-6.701-.268.404-2.055 3.094-.016.006a5.236 5.236 0 0 1-.993.101 4.309 4.309 0 0 1-3.124-1.312c-.949-.961-1.506-2.473-1.488-3.838.03-2.695 2.072-4.938 4.648-4.938h.058c2.574 0 4.595 2.14 4.595 4.869L60.236 32h4.036l-.008-8.136C64.322 18.849 60.963 15 55.757 15zm-35.929-4.599c-2.982 0-5.918 1.098-8.262 3.092-5.175 4.396-5.903 11.915-1.625 16.757 1.483 1.672 3.073 3.072 4.284 3.632L21.419 28h-6.592l-.044-.129c-2.667-3.078-2.463-7.641.452-10.119 1.334-1.134 2.998-1.778 4.682-1.778a6.99 6.99 0 0 1 5.24 2.367 6.649 6.649 0 0 1 1.668 4.981c-.147 1.833-.722 3.391-2.299 4.723-.045.039-8.657 7.197-8.657 7.197l4.082 4.15 8.253-7.077c4.868-4.478 4.979-9.431 3.784-13.131-1.299-4.023-5.285-8.783-12.16-8.783zM66 32h4V10h-4v22zm79.078-8.255c0 2.729-2.017 5.255-4.589 5.255h-.06c-2.575 0-4.616-2.205-4.646-4.901-.016-1.365.54-2.796 1.487-3.753.85-.859 1.93-1.385 3.128-1.385.322 0 .653.039.99.039h.017l2.056 3.14.266.428.006-6.696-.104-.189a10.507 10.507 0 0 0-3.642-.682h-.176c-4.438 0-8.247 4.146-8.191 8.938.053 4.956 4.38 8.767 8.38 8.767v.037l.355.018c4.904-.059 8.683-4.115 8.626-9.13L149.109 9h-4.038l.007 14.745zm13.723-8.373c-4.646 0-8.424 3.898-8.424 8.69 0 4.79 3.778 8.69 8.424 8.69 4.643 0 8.424-3.9 8.424-8.69 0-4.792-3.782-8.69-8.424-8.69zm0 13.444c-2.546 0-4.614-2.133-4.614-4.754 0-2.623 2.068-4.754 4.614-4.754 2.545 0 4.618 2.131 4.618 4.754 0 2.622-2.073 4.754-4.618 4.754zm-35.755-13.478c-4.262 0-7.046 3.043-7.046 7.402V32h4v-9.359c0-2.012 1.052-3.419 3.045-3.419 3.057 0 2.955 2.615 2.955 3.419V32h4v-9.26c0-4.495-2.615-7.402-6.954-7.402zM110 25.512c0 1.98-1.585 3.419-3.548 3.419-3.054 0-3.452-2.616-3.452-3.419V16h-3v9.379c0 4.496 2.615 7.402 6.952 7.402 4.261 0 7.048-3.045 7.048-7.402V16h-4v9.512z" fill="#fff"/></svg>